<svg id="OBJECTS" xmlns="http://www.w3.org/2000/svg" xmlns:xlink="http://www.w3.org/1999/xlink" viewBox="0 0 500 500"><defs><style>.cls-1{fill:#fff;}.cls-2{fill:#ff6224;}.cls-3{filter:url(#filter);}</style><filter id="filter"><feOffset dy="10" input="SourceAlpha"/><feGaussianBlur stdDeviation="10" result="blur"/><feFlood/><feComposite operator="in" in2="blur"/><feComposite in="SourceGraphic"/></filter></defs><path class="cls-1" d="M327.31,191.83l-7.85-1.53a61.11,61.11,0,0,0,1.09-11.75,69.52,69.52,0,1,0-139,0,61.72,61.72,0,0,0,1.08,11.73l-7.85,1.52a69.37,69.37,0,0,1-1.23-13.25,77.52,77.52,0,1,1,155,0A68.88,68.88,0,0,1,327.31,191.83Z"/><path class="cls-1" d="M313.34,203.31c0-10.92-2.81-19.18-7.75-28.1-6.27-11.34-19.38-16.88-32.06-14.2a118.22,118.22,0,0,1-45,0c-12.68-2.68-25.79,2.86-32.06,14.2-4.94,8.92-7.75,17.18-7.75,28.1,0,19.9,9.34,32.56,23.85,39.72h0l.28.12c1.31.64,2.66,1.23,4.06,1.78C243.2,257.08,251,272.44,251,272.44s7.84-15.36,34.16-27.51c1.4-.55,2.75-1.14,4.06-1.78l.28-.12h0C304,235.87,313.34,223.21,313.34,203.31Z"/><path class="cls-1" d="M238.28,271.4c-6.76-2.75-12-6.28-17.24-8.31-.66-.26-1.32-.52-2-.75l-1-.32L217,261.7q-2.52-.7-5-1.58a70.58,70.58,0,0,1-9.75-4.26,60.73,60.73,0,0,1-9-5.92,53.75,53.75,0,0,1-4.13-3.58,54.61,54.61,0,0,1-3.72-4A53,53,0,0,1,175,223.11a58.91,58.91,0,0,1-2.13-10.6l-.15-1.33-.09-1.34c-.06-.89-.13-1.78-.17-2.66,0-1.78-.08-3.56,0-5.32l.13-2.65.26-2.63c.14-1.77.47-3.5.73-5.25a76.33,76.33,0,0,1,2.62-10.23,79.28,79.28,0,0,1,4-9.75c.82-1.55,1.56-3.13,2.48-4.62l1.33-2.26,1.43-2.19c.47-.74,1-1.45,1.5-2.15s1-1.41,1.56-2.09a30,30,0,0,1,3.64-3.75c.66-.58,1.35-1.12,2.05-1.64s1.48-1,2.25-1.41a19.23,19.23,0,0,1,5-2,50.79,50.79,0,0,1-4.34,9.27c-.2.35-.4.7-.62,1s-.39.7-.6,1c-.42.67-.82,1.35-1.28,2-.79,1.36-1.73,2.62-2.48,4l-1.16,2-1.07,2.09c-.74,1.38-1.31,2.84-2,4.25a70,70,0,0,0-3,8.83,70.78,70.78,0,0,0-2.36,18.34,59.69,59.69,0,0,0,2.55,18,45,45,0,0,0,3.4,8.2,43.39,43.39,0,0,0,4.86,7.36,46.57,46.57,0,0,0,6.24,6.32,50.94,50.94,0,0,0,7.38,5.2,64.56,64.56,0,0,0,8.26,4.06c1.43.58,2.89,1.12,4.37,1.62l1.28.43c.45.16.89.33,1.33.51a25,25,0,0,1,2.58,1.18,21.31,21.31,0,0,1,2.44,1.43,20.56,20.56,0,0,1,2.25,1.68,27.82,27.82,0,0,1,3.79,3.9A25.74,25.74,0,0,1,238.28,271.4Z"/><path class="cls-1" d="M317.38,333.2c-13.55,0-27.05-5.63-27.82-6l3.12-7.37c.23.1,23.14,9.63,36,3.06,4.07-2.07,6.64-5.57,7.84-10.69,5.08-21.73-15.22-45.63-18-48.76L299,250.73l4.36-6.71,20.44,13.31.34.36c1.09,1.17,26.63,29,20.23,56.37-1.75,7.46-5.79,12.85-12,16A33,33,0,0,1,317.38,333.2Z"/><path class="cls-1" d="M294.48,294.07c1.24-.16,2.26-.21,3.37-.26s2.17-.06,3.25-.05a59.67,59.67,0,0,1,6.43.43,44.8,44.8,0,0,1,6.26,1.28,28,28,0,0,1,5.77,2.45,26.75,26.75,0,0,0-6-.46,41,41,0,0,0-5.89.73A54.06,54.06,0,0,0,302,299.7c-.93.3-1.85.63-2.75,1s-1.84.73-2.56,1.09Z"/><path class="cls-1" d="M297.59,294.21a20.57,20.57,0,0,1,2.27-.83c.73-.24,1.46-.45,2.19-.64a40.09,40.09,0,0,1,4.44-.89,30.53,30.53,0,0,1,4.46-.28,18.9,18.9,0,0,1,4.3.6,18.33,18.33,0,0,0-3.9,1.35,28.38,28.38,0,0,0-3.45,2.07,33.87,33.87,0,0,0-3.09,2.48c-.49.44-1,.89-1.43,1.35a15.91,15.91,0,0,0-1.23,1.36Z"/><path class="cls-1" d="M182.62,333.2a33,33,0,0,1-15-3.13c-6.23-3.16-10.27-8.55-12-16-6.4-27.35,19.14-55.2,20.23-56.37l.33-.36L196.66,244l4.36,6.71-19.59,12.75c-2.76,3.12-23.07,27-18,48.76,1.2,5.13,3.77,8.63,7.85,10.7,10.74,5.46,29.65-.36,36-3.07l3.12,7.37C209.67,327.57,196.17,333.2,182.62,333.2Z"/><path class="cls-1" d="M205.52,294.07c-1.24-.16-2.26-.21-3.37-.26s-2.17-.06-3.25-.05a59.67,59.67,0,0,0-6.43.43,45.24,45.24,0,0,0-6.27,1.28,28.11,28.11,0,0,0-5.76,2.45,26.71,26.71,0,0,1,6-.46,41,41,0,0,1,5.89.73A54.72,54.72,0,0,1,198,299.7c.93.3,1.85.63,2.75,1s1.84.73,2.56,1.09Z"/><path class="cls-1" d="M202.41,294.21a20.57,20.57,0,0,0-2.27-.83c-.73-.24-1.46-.45-2.19-.64a40.09,40.09,0,0,0-4.44-.89,30.53,30.53,0,0,0-4.46-.28,19.07,19.07,0,0,0-4.31.6,18.22,18.22,0,0,1,3.91,1.35,28.38,28.38,0,0,1,3.45,2.07,35.29,35.29,0,0,1,3.09,2.48c.49.44,1,.89,1.42,1.35a14.6,14.6,0,0,1,1.24,1.36Z"/><path class="cls-1" d="M263.4,272.44a28,28,0,0,1,3.2-6.32,40.91,40.91,0,0,1,4.4-5.53,39.14,39.14,0,0,1,11.63-8.48,31.52,31.52,0,0,1,3.44-1.43l1.78-.62,1.48-.48a43.12,43.12,0,0,0,5.57-2.31c.87-.44,1.72-.92,2.54-1.43l1.21-.79,1.23-.91,1.22-.9c.41-.31.78-.65,1.17-1l1.16-1c.38-.33.74-.69,1.11-1A45.13,45.13,0,0,0,316.92,220a55.66,55.66,0,0,0,2.1-12,69.14,69.14,0,0,0-.25-12.37A70.35,70.35,0,0,0,296.89,152a68.83,68.83,0,0,0-21.1-13.54c-3.91-1.61-8-2.75-12-4.11-2-.68-4.11-1.31-6.22-2-1.06-.34-2.12-.73-3.2-1.11s-2.18-.78-3.3-1.29a33,33,0,0,1,3.4-1.12c1.15-.3,2.31-.46,3.48-.65a35.8,35.8,0,0,1,7-.21,49.35,49.35,0,0,1,13.7,3.1,77.36,77.36,0,0,1,50.72,63.42,79,79,0,0,1,.34,14.35A64,64,0,0,1,327,223.12a54,54,0,0,1-15.74,24.55c-.46.41-.91.83-1.38,1.22L308.48,250c-.48.37-1,.76-1.45,1.11l-1.5,1-1.5,1c-.53.34-1.08.67-1.63,1-1.1.63-2.22,1.21-3.35,1.73a52.78,52.78,0,0,1-6.89,2.57l-1.71.5-1.4.43c-.94.26-1.86.66-2.79,1a96.65,96.65,0,0,0-11.16,5.42C271.31,267.87,267.55,270.15,263.4,272.44Z"/><path class="cls-2" d="M261,221.72l33.31-14s-5.75-12.33-18.92-7.88C260.44,204.91,261,221.72,261,221.72Z"/><path class="cls-2" d="M226.72,199.85c-13.17-4.45-18.92,7.88-18.92,7.88l33.31,14S241.63,204.91,226.72,199.85Z"/><path class="cls-1" d="M300.56,332.51H201.51L195,290.05a5.19,5.19,0,0,1,5.13-6H302a5.19,5.19,0,0,1,5.13,6Z"/><path class="cls-2" d="M299.79,337H202.28a3,3,0,0,1-3-3h0a3,3,0,0,1,3-3h97.51a3,3,0,0,1,3,3h0A3,3,0,0,1,299.79,337Z"/><g class="cls-3"><polygon class="cls-2" points="236.06 317.94 226.89 308.76 231.22 304.43 244.68 317.94 236.06 317.94"/><polygon class="cls-2" points="231.2 304.44 236.05 299.6 244.66 299.6 235.5 308.76 231.2 304.44"/><polygon class="cls-2" points="254.39 299.61 254.39 299.6 240.36 313.62 244.66 317.94 263 299.6 254.39 299.61"/><polygon class="cls-2" points="272.2 308.77 263.02 299.6 263 299.6 258.7 303.9 267.87 313.1 272.2 308.77"/><polygon class="cls-2" points="267.87 313.1 263.03 317.94 254.41 317.94 263.57 308.78 267.87 313.1"/></g></svg>